<svg width="18" height="21" viewBox="0 0 18 21" fill="none" xmlns="http://www.w3.org/2000/svg">
<path d="M15.9391 6.69909C16.1384 6.69909 16.3193 6.78609 16.4623 6.93308C16.5955 7.09008 16.6626 7.28508 16.6432 7.49108C16.6432 7.55908 16.1102 14.299 15.8058 17.136C15.6152 18.877 14.4929 19.934 12.8094 19.963C11.5149 19.992 10.2496 20.002 9.00379 20.002C7.68112 20.002 6.38763 19.992 5.13206 19.963C3.50498 19.924 2.38168 18.848 2.20079 17.136C1.88763 14.289 1.36439 7.55908 1.35467 7.49108C1.34494 7.28508 1.41108 7.09008 1.54529 6.93308C1.67756 6.78609 1.86818 6.69909 2.06852 6.69909H15.9391ZM11.0647 0.00195312C11.9488 0.00195312 12.7385 0.618947 12.967 1.49894L13.1304 2.22893C13.2627 2.82393 13.7781 3.24492 14.3714 3.24492H17.2871C17.6761 3.24492 18 3.56792 18 3.97891V4.35891C18 4.75991 17.6761 5.0929 17.2871 5.0929H0.713853C0.32386 5.0929 0 4.75991 0 4.35891V3.97891C0 3.56792 0.32386 3.24492 0.713853 3.24492H3.62957C4.22185 3.24492 4.7373 2.82393 4.87054 2.22993L5.02323 1.54794C5.26054 0.618947 6.0415 0.00195312 6.93527 0.00195312H11.0647Z" fill="#F15A5B"/>
</svg>
