<svg width="15" height="16" viewBox="0 0 15 16" fill="none" xmlns="http://www.w3.org/2000/svg">
<path d="M14.1581 13.7944C14.6224 13.7944 15 14.1769 15 14.6472C15 15.1184 14.6224 15.5 14.1581 15.5H9.39974C8.93548 15.5 8.55789 15.1184 8.55789 14.6472C8.55789 14.1769 8.93548 13.7944 9.39974 13.7944H14.1581ZM10.8582 1.08255L12.0874 2.05899C12.5914 2.45314 12.9275 2.97271 13.0424 3.51916C13.1751 4.12025 13.0336 4.71059 12.6357 5.2212L5.31366 14.6899C4.97763 15.1199 4.48242 15.3618 3.95185 15.3707L1.03366 15.4066C0.874489 15.4066 0.741844 15.2991 0.706472 15.1468L0.0432487 12.2712C-0.07171 11.7427 0.0432487 11.1963 0.379282 10.7752L5.57011 4.05664C5.65854 3.94915 5.81771 3.93213 5.92383 4.01185L8.10805 5.74973C8.24953 5.86618 8.44408 5.92889 8.64747 5.90201C9.08077 5.84827 9.37259 5.45411 9.32838 5.03308C9.30185 4.81808 9.19573 4.63892 9.05424 4.50455C9.01003 4.46872 6.93193 2.80251 6.93193 2.80251C6.79929 2.69501 6.77276 2.49793 6.87887 2.36446L7.70127 1.29755C8.46177 0.321114 9.78821 0.231533 10.8582 1.08255Z" fill="#2C7D92"/>
</svg>
