<svg width="24" height="24" viewBox="0 0 24 24" fill="none" xmlns="http://www.w3.org/2000/svg">
<path d="M22.1484 9.65625H16.1484C16.0453 9.65625 15.9609 9.74062 15.9609 9.84375V10.9688C15.9609 11.0719 16.0453 11.1562 16.1484 11.1562H22.1484C22.2516 11.1562 22.3359 11.0719 22.3359 10.9688V9.84375C22.3359 9.74062 22.2516 9.65625 22.1484 9.65625ZM19.0078 12.8438H16.1484C16.0453 12.8438 15.9609 12.9281 15.9609 13.0312V14.1562C15.9609 14.2594 16.0453 14.3438 16.1484 14.3438H19.0078C19.1109 14.3438 19.1953 14.2594 19.1953 14.1562V13.0312C19.1953 12.9281 19.1109 12.8438 19.0078 12.8438ZM11.1867 7.55859H10.1719C10.0266 7.55859 9.90936 7.67578 9.90936 7.82109V13.6336C9.90936 13.718 9.94921 13.7953 10.0172 13.8445L13.507 16.3898C13.6242 16.4742 13.7883 16.4508 13.8726 16.3336L14.475 15.5109V15.5086C14.5594 15.3914 14.5336 15.2273 14.4164 15.143L11.4469 12.9961V7.82109C11.4492 7.67578 11.3297 7.55859 11.1867 7.55859Z" fill="#C2C2C2" stroke="#C2C2C2" stroke-width="0.5"/>
<path d="M18.8625 15.7929H17.5078C17.3766 15.7929 17.2523 15.8609 17.182 15.9734C16.8844 16.4444 16.5375 16.8804 16.1391 17.2788C15.4523 17.9655 14.6531 18.5046 13.7648 18.8796C12.8438 19.2687 11.8664 19.4655 10.8586 19.4655C9.84844 19.4655 8.8711 19.2687 7.95235 18.8796C7.06407 18.5046 6.26486 17.9655 5.57814 17.2788C4.89142 16.5921 4.35236 15.7929 3.97736 14.9046C3.5883 13.9859 3.39142 13.0085 3.39142 11.9984C3.39142 10.9882 3.5883 10.0132 3.97736 9.09211C4.35236 8.20383 4.89142 7.40462 5.57814 6.7179C6.26486 6.03118 7.06407 5.49212 7.95235 5.11712C8.8711 4.72806 9.85079 4.53118 10.8586 4.53118C11.8688 4.53118 12.8461 4.72806 13.7648 5.11712C14.6531 5.49212 15.4523 6.03118 16.1391 6.7179C16.5375 7.11634 16.8844 7.55227 17.182 8.02337C17.2523 8.13586 17.3766 8.20383 17.5078 8.20383H18.8625C19.0242 8.20383 19.1273 8.03508 19.0547 7.89212C17.5266 4.85227 14.4281 2.8765 10.9688 2.83665C5.90392 2.77337 1.69689 6.91946 1.68752 11.9796C1.67814 17.0491 5.78673 21.1624 10.8563 21.1624C14.3602 21.1624 17.5102 19.1796 19.0547 16.1046C19.1273 15.9616 19.0219 15.7929 18.8625 15.7929Z" fill="#C2C2C2" stroke="#C2C2C2" stroke-width="0.5"/>
</svg>
