<svg width="24" height="24" viewBox="0 0 24 24" fill="none" xmlns="http://www.w3.org/2000/svg">
<path d="M9.04989 1.99992C9.98089 1.99009 10.8499 2.42009 11.4199 3.15009L12.2999 4.32009C12.5799 4.67009 12.9999 4.88009 13.4499 4.88009H16.5199C20.2099 4.88009 22.0099 6.85009 21.9999 10.8901V15.7601C21.9999 19.6201 19.6199 22.0001 15.7499 22.0001H8.23989C4.38989 22.0001 1.99989 19.6201 1.99989 15.7501V8.24009C1.99989 4.10009 3.83989 1.99992 7.46989 1.99992H9.04989ZM16.6299 13.7901H7.36989C6.94989 13.7901 6.61989 14.1201 6.61989 14.5401C6.61989 14.9501 6.94989 15.2901 7.36989 15.2901H16.6299C17.0399 15.2901 17.3699 14.9501 17.3699 14.5401C17.3699 14.1201 17.0399 13.7901 16.6299 13.7901Z" fill="#C2C2C2"/>
</svg>
