<svg width="19" height="21" viewBox="0 0 19 21" fill="none" xmlns="http://www.w3.org/2000/svg">
<path fill-rule="evenodd" clip-rule="evenodd" d="M14.053 0.5C16.492 0.5 18.478 2.485 18.478 4.925V16.064C18.478 18.51 16.487 20.5 14.042 20.5H9.157C6.718 20.5 4.733 18.515 4.733 16.075V15.133C4.733 14.719 5.069 14.383 5.483 14.383C5.897 14.383 6.233 14.719 6.233 15.133V16.075C6.233 17.687 7.545 19 9.157 19H14.042C15.661 19 16.978 17.684 16.978 16.064V4.925C16.978 3.313 15.665 2 14.053 2H9.168C7.55 2 6.233 3.316 6.233 4.934V5.867C6.233 6.281 5.897 6.617 5.483 6.617C5.069 6.617 4.733 6.281 4.733 5.867V4.934C4.733 2.489 6.723 0.5 9.168 0.5H14.053ZM10.3923 7.053L13.3212 9.96975C13.345 9.99351 13.3672 10.0188 13.3876 10.0456L13.3213 9.969C13.3612 10.0084 13.3962 10.0518 13.4258 10.0984C13.4318 10.1101 13.4387 10.1215 13.4452 10.1331C13.4566 10.151 13.4663 10.17 13.4751 10.1894C13.4801 10.2032 13.4858 10.2169 13.4912 10.2308C13.4997 10.2498 13.5063 10.2693 13.5121 10.2891C13.5155 10.3047 13.5195 10.3203 13.523 10.336C13.5285 10.3551 13.532 10.3743 13.5347 10.3936C13.5348 10.4024 13.5359 10.4116 13.5369 10.4209C13.5409 10.4473 13.5423 10.4736 13.5423 10.5L13.535 10.579L13.5341 10.6017C13.5339 10.6034 13.5337 10.6051 13.5334 10.6068L13.5423 10.5C13.5423 10.5555 13.5362 10.6105 13.5242 10.6639C13.5195 10.6797 13.5155 10.6953 13.511 10.7107C13.5063 10.7307 13.4997 10.7502 13.4923 10.7695C13.4858 10.7831 13.4801 10.7968 13.4739 10.8103C13.4663 10.83 13.4566 10.849 13.4461 10.8676C13.4387 10.8785 13.4318 10.8899 13.4247 10.9011C13.414 10.9202 13.4013 10.9383 13.3878 10.9558C13.3786 10.9662 13.37 10.9768 13.3611 10.9872C13.3491 11.0025 13.3355 11.017 13.3213 11.031L10.3923 13.946C10.2463 14.092 10.0543 14.165 9.8633 14.165C9.6713 14.165 9.4783 14.092 9.3323 13.944C9.0393 13.65 9.0413 13.176 9.3343 12.884L10.975 11.25H0.75C0.336 11.25 0 10.914 0 10.5C0 10.086 0.336 9.75 0.75 9.75H10.975L9.3343 8.115C9.0413 7.823 9.0393 7.349 9.3323 7.055C9.6253 6.761 10.0993 6.761 10.3923 7.053Z" fill="#2C7D92"/>
</svg>
