<svg width="24" height="24" viewBox="0 0 24 24" fill="none" xmlns="http://www.w3.org/2000/svg">
<path fill-rule="evenodd" clip-rule="evenodd" d="M11.3083 2C13.7543 2 15.7443 3.99 15.7443 6.436V7.368C15.7443 7.782 15.4083 8.118 14.9943 8.118C14.5803 8.118 14.2443 7.782 14.2443 7.368V6.436C14.2443 4.816 12.9273 3.5 11.3083 3.5H6.43331C4.81631 3.5 3.50031 4.816 3.50031 6.436V17.565C3.50031 19.184 4.81631 20.5 6.43331 20.5H11.3193C12.9313 20.5 14.2443 19.188 14.2443 17.576V16.633C14.2443 16.219 14.5803 15.883 14.9943 15.883C15.4083 15.883 15.7443 16.219 15.7443 16.633V17.576C15.7443 20.016 13.7583 22 11.3193 22H6.43331C3.98931 22 2.00031 20.011 2.00031 17.565V6.436C2.00031 3.99 3.98931 2 6.43331 2H11.3083ZM19.3884 8.554L22.3164 11.469C22.3425 11.4949 22.3659 11.5219 22.3873 11.5504L22.3164 11.469C22.3518 11.5039 22.3833 11.5421 22.4107 11.5828C22.4227 11.6012 22.4343 11.6203 22.4451 11.6399C22.4538 11.6552 22.4618 11.6712 22.4693 11.6875C22.4756 11.7018 22.4817 11.7162 22.4873 11.7308C22.4948 11.7498 22.5014 11.7693 22.5072 11.7891C22.5116 11.8047 22.5156 11.8203 22.5191 11.836C22.5236 11.8551 22.5271 11.8743 22.5298 11.8937C22.5314 11.9063 22.5329 11.9195 22.5341 11.9328C22.5364 11.9556 22.5374 11.9777 22.5374 12L22.5323 12.062L22.5303 12.1017C22.53 12.1034 22.5298 12.1051 22.5295 12.1068L22.5374 12C22.5374 12.0555 22.5313 12.1105 22.5193 12.1639C22.5156 12.1797 22.5116 12.1953 22.5071 12.2107C22.5014 12.2307 22.4948 12.2502 22.4874 12.2695C22.4817 12.2838 22.4756 12.2982 22.4691 12.3123C22.4618 12.3288 22.4538 12.3448 22.4452 12.3605C22.4343 12.3797 22.4227 12.3988 22.4103 12.4172C22.4033 12.4282 22.3956 12.439 22.3876 12.4497C22.3638 12.481 22.3378 12.5104 22.3098 12.5377L19.3884 15.447C19.2424 15.593 19.0504 15.666 18.8594 15.666C18.6674 15.666 18.4744 15.593 18.3284 15.445C18.0364 15.151 18.0374 14.677 18.3304 14.385L19.9703 12.75H9.74611C9.33211 12.75 8.99611 12.414 8.99611 12C8.99611 11.586 9.33211 11.25 9.74611 11.25H19.9723L18.3304 9.616C18.0374 9.324 18.0354 8.85 18.3284 8.556C18.6204 8.262 19.0944 8.262 19.3884 8.554Z" fill="#F15A5B"/>
</svg>
