<svg width="100" height="100" viewBox="0 0 100 100" fill="none" xmlns="http://www.w3.org/2000/svg">
<circle cx="50" cy="50" r="49.5" fill="white" stroke="#EDEDED"/>
<path d="M50 83.3334C31.59 83.3334 16.6667 68.4101 16.6667 50.0001C16.6667 31.5901 31.59 16.6667 50 16.6667C68.41 16.6667 83.3333 31.5901 83.3333 50.0001C83.3333 68.4101 68.41 83.3334 50 83.3334ZM33.3333 50.0001C33.3333 54.4204 35.0893 58.6596 38.2149 61.7852C41.3405 64.9108 45.5797 66.6668 50 66.6668C54.4203 66.6668 58.6595 64.9108 61.7851 61.7852C64.9107 58.6596 66.6667 54.4204 66.6667 50.0001H60C60 52.6522 58.9464 55.1958 57.0711 57.0712C55.1957 58.9465 52.6522 60.0001 50 60.0001C47.3478 60.0001 44.8043 58.9465 42.9289 57.0712C41.0536 55.1958 40 52.6522 40 50.0001H33.3333Z" fill="#EDEDED"/>
</svg>
